# xmcd
#
# Track frame offsets:
#	183
#	17460
#	31465
#	41803
#	53830
#	65518
#	76963
#	87413
#	97683
#	107450
#	116940
#	126170
#	140263
#	154120
#	166663
#	178590
#	190230
#	201198
#	214130
#	224408
#	234190
#	243645
#
# Disc length: 3365 seconds
#
# Revision: 0
# Processed by: cddbd v1.5.1PL0 Copyright (c) Steve Scherf et al.
# Submitted via: audiograbber 1.83.01
#
DISCID=2b0d2316
DTITLE=Bill Quinn - A tribute to Jim Reeves
DYEAR=1900
DGENRE=Country
TTITLE0=Whispering hope
TTITLE1=Scarlett ribbons
TTITLE2=Welcome to my world
TTITLE3=Mexicali rose
TTITLE4=Am I losing you
TTITLE5=Just out of reach
TTITLE6=Adios amigo
TTITLE7=If only I had you
TTITLE8=It hurts so much to see you go
TTITLE9=Is it really over
TTITLE10=You're free to go
TTITLE11=This world is not my home
TTITLE12=Four walls
TTITLE13=I love you because
TTITLE14=No one to cry to
TTITLE15=Not until the next time
TTITLE16=Anna Marie
TTITLE17=Distant drums
TTITLE18=He'll have to go
TTITLE19=You're the only good thing
TTITLE20=I won't forget you
TTITLE21=Oh, how I miss you tonight
EXTD=
EXTT0=
EXTT1=
EXTT2=
EXTT3=
EXTT4=
EXTT5=
EXTT6=
EXTT7=
EXTT8=
EXTT9=
EXTT10=
EXTT11=
EXTT12=
EXTT13=
EXTT14=
EXTT15=
EXTT16=
EXTT17=
EXTT18=
EXTT19=
EXTT20=
EXTT21=
PLAYORDER=
